# xmcd
#
# Track frame offsets:
#	150
#	16009
#	39507
#	60576
#	82151
#	108482
#	128455
#	141069
#	169133
#	188748
#	210669
#	232653
#
# Disc length: 3469 seconds
#
# Revision: 0
# Processed by: cddbd v1.5.2PL0 Copyright (c) Steve Scherf et al.
# Submitted via: audiograbber 1.83.01
#
DISCID=920d8b0c
DTITLE=Beth Hart - Rockpalast Crossroads 2006
DYEAR=2006
DGENRE=Blues Rock
TTITLE0=Bottle Of Jesus
TTITLE1=Get Your Sh-t Together
TTITLE2=Mama
TTITLE3=World Without You
TTITLE4=Easy
TTITLE5=Learning To Live
TTITLE6=Face Forward Son
TTITLE7=Broken And Ugly
TTITLE8=Jealousy
TTITLE9=Monkey Back
TTITLE10=Leave The Light On
TTITLE11=Whole Lotta Love
EXTD=
EXTT0=
EXTT1=
EXTT2=
EXTT3=
EXTT4=
EXTT5=
EXTT6=
EXTT7=
EXTT8=
EXTT9=
EXTT10=
EXTT11=
PLAYORDER=
